<svg id="Capa_1" data-name="Capa 1" xmlns="http://www.w3.org/2000/svg" xmlns:xlink="http://www.w3.org/1999/xlink" viewBox="0 0 720 720"><defs><style>.cls-1,.cls-3{fill:none;}.cls-2{clip-path:url(#clip-path);}.cls-3{stroke:#3636ad;stroke-miterlimit:10;stroke-width:14px;}.cls-4{fill:#7fcd91;}.cls-5{clip-path:url(#clip-path-2);}.cls-6{fill:#5b5656;}.cls-15,.cls-7{fill:#4d4646;}.cls-8{fill:#ed1c24;}.cls-9{fill:#f15a24;}.cls-10{font-size:35.77px;}.cls-10,.cls-11,.cls-18{fill:#fff;}.cls-10,.cls-11{font-family:Montserrat-SemiBold, Montserrat;font-weight:600;}.cls-11{font-size:54.85px;}.cls-12{letter-spacing:0.02em;}.cls-13{letter-spacing:0em;}.cls-14{letter-spacing:0.02em;}.cls-15{font-size:26.82px;}.cls-15,.cls-18{font-family:Montserrat-Regular, Montserrat;}.cls-16{letter-spacing:0em;}.cls-17{letter-spacing:0em;}.cls-18{font-size:35.44px;letter-spacing:0em;}.cls-19{letter-spacing:0em;}</style><clipPath id="clip-path"><rect class="cls-1" x="-674.95" y="166.87" width="625.9" height="386.27" rx="44.33"/></clipPath><clipPath id="clip-path-2"><rect class="cls-1" x="47.05" y="166.87" width="625.9" height="386.27" rx="44.33"/></clipPath></defs><g class="cls-2"><path class="cls-3" d="M-519.85-49.48c36.73-.67,86.54-8.06,121.75,5.25C-381.54-38-367.19-21.8-353.76-10.5c18.06,15.19,68.69,43.79,64,70C-293.19,79-310.16,97-320.9,112.89c-8.55,12.66-27.83,35.85-22,52.94,3.95,11.53,22.29,22.5,31.45,30.21l34.1,28.67c19.46,16.38,45.77,30.08,41.91,58.86-1.65,12.28-7.82,24.45-7.09,37,.92,15.88,11.37,23.28,22.63,32.81C-194.4,375-169.38,397.71-143,418.09-98.2,452.6-33.38,455.35,18,476.55"/><path class="cls-3" d="M-494.32-112.67c36.55,13.58,76.46,10.34,114.93,9.64,31.75-.58,71.15-5.58,101.48,6.06,28.5,11,55.14,41.94,78.69,61.75,10.66,9,29.66,19.12,30.6,34.18,1.11,17.77-15.1,36.44-24.41,50.26S-224.58,87.29-223.41,106c.92,14.91,17.25,23.83,27.67,32.6,22.08,18.57,45.79,36.21,66.68,56.08,24.3,23.12,8.32,40.49,7.52,69.36-.79,29.16,37.77,49.1,57.71,65.87q18.9,15.9,37.79,31.78c24.36,20.38,54.09,27.65,84.2,36.13"/></g><rect class="cls-4" x="47.05" y="166.87" width="625.9" height="386.27" rx="44.33"/><g class="cls-5"><path class="cls-6" d="M53.94,199.63s122,149.18,314.32,122.14S591.58,394.24,595.34,448,673,490.87,673,490.87v76.89l-625.9,4.61V199.63Z"/><path class="cls-7" d="M47.05,357.89S165.5,308,261.16,394.63s124.78,0,194.45,17S602.22,565.28,602.22,565.28H47.05Z"/></g><path class="cls-8" d="M550.49,447a42.92,42.92,0,1,0,0,57.52,42.75,42.75,0,0,1,0-57.52Z"/><path class="cls-9" d="M582.28,432.83A42.79,42.79,0,0,0,550.49,447a42.72,42.72,0,0,1,0,57.52,42.9,42.9,0,1,0,31.79-71.68Z"/><ellipse class="cls-8" cx="550.49" cy="475.75" rx="11.13" ry="28.76"/><text class="cls-10" transform="translate(133.45 483.93)">aymane</text><text class="cls-11" transform="translate(135.82 400.77)"><tspan class="cls-12">***</tspan><tspan class="cls-13" x="71.73" y="0">* </tspan><tspan class="cls-12" x="109.68" y="0">***</tspan><tspan x="181.42" y="0">* </tspan><tspan class="cls-14" x="219.37" y="0">***</tspan><tspan class="cls-13" x="291.1" y="0">* 1234</tspan></text><text class="cls-15" transform="translate(446.4 244.04)"><tspan class="cls-16"></tspan><tspan x="19.26" y="0"></tspan><tspan class="cls-17" x="35.09" y="0"></tspan><tspan x="53.3" y="0">CIH Bank</tspan></text><text class="cls-18" transform="translate(349.17 483.93)">0<tspan class="cls-19" x="23.39" y="0">1/30</tspan></text></svg>