<svg id="Capa_1" data-name="Capa 1" xmlns="http://www.w3.org/2000/svg" xmlns:xlink="http://www.w3.org/1999/xlink" viewBox="0 0 720 720"><defs><style>.cls-1{fill:none;}.cls-2{clip-path:url(#clip-path);}.cls-3{fill:#d32626;}.cls-4{fill:url(#Gradiente_lindo);}.cls-5{clip-path:url(#clip-path-2);}.cls-6{fill:#84a9ac;}.cls-7{fill:#75bb9a;}.cls-16,.cls-8{font-size:35.44px;}.cls-12,.cls-15,.cls-16,.cls-8,.cls-9{fill:#fff;}.cls-8,.cls-9{font-family:Montserrat-SemiBold, Montserrat;font-weight:600;}.cls-9{font-size:54.34px;}.cls-10{letter-spacing:0.02em;}.cls-11{letter-spacing:0em;}.cls-12{font-size:26.58px;font-family:Montserrat-Light, Montserrat;font-weight:300;}.cls-13{letter-spacing:0em;}.cls-14{letter-spacing:0em;}.cls-16{font-family:Montserrat-Regular, Montserrat;letter-spacing:0em;}.cls-17{letter-spacing:0em;}.cls-18{clip-path:url(#clip-path-3);}</style><clipPath id="clip-path"><rect class="cls-1" x="-672.08" y="166.87" width="620.15" height="386.27" rx="44.13"/></clipPath><linearGradient id="Gradiente_lindo" x1="40.43" y1="495.65" x2="680.26" y2="224.06" gradientUnits="userSpaceOnUse"><stop offset="0.19" stop-color="#204051"/><stop offset="0.3" stop-color="#254f58"/><stop offset="0.6" stop-color="#317469"/><stop offset="0.85" stop-color="#388b74"/><stop offset="1" stop-color="#3b9478"/></linearGradient><clipPath id="clip-path-2"><rect class="cls-1" x="49.92" y="166.87" width="620.15" height="386.27" rx="44.13"/></clipPath><clipPath id="clip-path-3"><rect class="cls-1" x="-674.95" y="-555.13" width="625.9" height="386.27" rx="44.33"/></clipPath></defs><g class="cls-2"><circle class="cls-3" cx="-8.14" cy="390.88" r="9.32"/><circle class="cls-3" cx="3.52" cy="418.34" r="9.32"/><circle class="cls-3" cx="15.17" cy="445.79" r="9.32"/><circle class="cls-3" cx="26.83" cy="473.25" r="9.32"/></g><rect class="cls-4" x="49.92" y="166.87" width="620.15" height="386.27" rx="44.13"/><g class="cls-5"><polygon class="cls-6" points="242.99 382.65 192.5 73.77 -14.76 205.11 242.99 382.65"/><polygon class="cls-7" points="475.13 573.93 584.98 105.71 846.97 268.93 475.13 573.93"/></g><text class="cls-8" transform="translate(91.69 492.13)">aymane</text><text class="cls-9" transform="translate(136.55 394.68)"><tspan class="cls-10">***</tspan><tspan class="cls-11" x="71.08" y="0">* </tspan><tspan class="cls-10" x="108.68" y="0">***</tspan><tspan x="179.76" y="0">* </tspan><tspan class="cls-10" x="217.36" y="0">***</tspan><tspan x="288.44" y="0">* 1234</tspan></text><text class="cls-12" transform="translate(444.29 217.24)"><tspan class="cls-13"></tspan><tspan x="19" y="0"></tspan><tspan class="cls-14" x="34.5" y="0"></tspan><tspan x="52.41" y="0">CIH Bank</tspan></text><polygon class="cls-15" points="520.75 453.46 512.6 501.3 525.63 501.3 533.79 453.46 520.75 453.46"/><path class="cls-15" d="M501.67,453.52,488.9,486.14l-1.36-4.92c-2.52-5.94-9.67-14.46-18.06-19.83l11.67,39.89,13.8,0,20.53-47.74Z"/><path class="cls-15" d="M482.59,456.94c-.76-2.91-3-3.78-5.68-3.88H456.69l-.16.95c15.73,3.81,26.13,13,30.45,24.06Z"/><path class="cls-15" d="M560.22,462.64a23.92,23.92,0,0,1,9.75,1.83l1.18.55,1.76-10.37a33.56,33.56,0,0,0-11.67-2c-12.89,0-22,6.49-22,15.79-.08,6.87,6.47,10.71,11.42,13s6.78,3.84,6.76,5.93c0,3.2-4,4.67-7.8,4.67a27.39,27.39,0,0,1-12.27-2.5l-1.68-.77-1.84,10.71c3.05,1.34,8.68,2.49,14.53,2.55,13.7,0,22.61-6.41,22.7-16.35.06-5.43-3.42-9.58-10.95-13-4.56-2.22-7.35-3.7-7.32-5.94C552.75,464.76,555.11,462.64,560.22,462.64Z"/><path class="cls-15" d="M606.37,453.52H596.3c-3.13,0-5.46.85-6.83,4l-19.36,43.84H583.8s2.24-5.9,2.74-7.19l16.7,0c.39,1.67,1.59,7.17,1.59,7.17h12.09Zm-16.08,30.83c1.08-2.75,5.2-13.37,5.2-13.37s1.06-2.76,1.73-4.57l.88,4.13s2.5,11.42,3,13.81Z"/><text class="cls-16" transform="translate(318.63 493.4)">0<tspan class="cls-17" x="23.39" y="0">1/30</tspan></text></svg>