<svg id="Capa_1" data-name="Capa 1" xmlns="http://www.w3.org/2000/svg" xmlns:xlink="http://www.w3.org/1999/xlink" viewBox="0 0 720 720"><defs><style>.cls-1,.cls-17{fill:none;}.cls-2{fill:url(#Degradado_sin_nombre_4);}.cls-3{clip-path:url(#clip-path);}.cls-4{fill:#d32626;}.cls-12,.cls-5{font-size:35.44px;}.cls-5,.cls-6{font-family:Montserrat-SemiBold, Montserrat;font-weight:600;}.cls-6{font-size:54.34px;}.cls-7{letter-spacing:0.02em;}.cls-8{letter-spacing:0em;}.cls-9{font-size:26.58px;font-family:Montserrat-Light, Montserrat;font-weight:300;}.cls-10{letter-spacing:0em;}.cls-11{letter-spacing:0em;}.cls-12{font-family:Montserrat-Regular, Montserrat;letter-spacing:0em;}.cls-13{letter-spacing:0em;}.cls-14{clip-path:url(#clip-path-2);}.cls-15{fill:#84a9ac;}.cls-16{clip-path:url(#clip-path-3);}.cls-17{stroke:#3636ad;stroke-miterlimit:10;stroke-width:14px;}</style><linearGradient id="Degradado_sin_nombre_4" x1="40.43" y1="495.65" x2="680.26" y2="224.06" gradientUnits="userSpaceOnUse"><stop offset="0.34" stop-color="#e52c2c"/><stop offset="0.43" stop-color="#e53030"/><stop offset="0.53" stop-color="#e53d3d"/><stop offset="0.63" stop-color="#e45353"/><stop offset="0.74" stop-color="#e47171"/><stop offset="0.84" stop-color="#e39797"/><stop offset="0.95" stop-color="#e2c6c6"/><stop offset="1" stop-color="#e2e0e0"/></linearGradient><clipPath id="clip-path"><rect class="cls-1" x="49.92" y="166.87" width="620.15" height="386.27" rx="44.13"/></clipPath><clipPath id="clip-path-2"><rect class="cls-1" x="771.92" y="166.87" width="620.15" height="386.27" rx="44.13"/></clipPath><clipPath id="clip-path-3"><rect class="cls-1" x="47.05" y="-555.13" width="625.9" height="386.27" rx="44.33"/></clipPath></defs><rect class="cls-2" x="49.92" y="166.87" width="620.15" height="386.27" rx="44.13"/><g class="cls-3"><circle class="cls-4" cx="267.4" cy="128.64" r="14.48"/><circle class="cls-4" cx="285.5" cy="171.28" r="14.48"/><circle class="cls-4" cx="303.6" cy="213.92" r="14.48"/><circle class="cls-4" cx="321.7" cy="256.56" r="14.48"/><circle class="cls-4" cx="339.8" cy="299.2" r="14.48"/><circle class="cls-4" cx="357.9" cy="341.84" r="14.48"/><circle class="cls-4" cx="375.99" cy="384.47" r="14.48"/><circle class="cls-4" cx="394.09" cy="427.11" r="14.48"/><circle class="cls-4" cx="412.19" cy="469.75" r="14.48"/><circle class="cls-4" cx="430.29" cy="512.39" r="14.48"/><circle class="cls-4" cx="448.39" cy="555.03" r="14.48"/><circle class="cls-4" cx="466.49" cy="597.67" r="14.48"/><circle class="cls-4" cx="484.59" cy="640.31" r="14.48"/><circle class="cls-4" cx="502.69" cy="682.95" r="14.48"/><circle class="cls-4" cx="335.97" cy="134.69" r="13.04"/><circle class="cls-4" cx="352.27" cy="173.09" r="13.04"/><circle class="cls-4" cx="368.57" cy="211.49" r="13.04"/><circle class="cls-4" cx="384.87" cy="249.89" r="13.04"/><circle class="cls-4" cx="401.17" cy="288.3" r="13.04"/><circle class="cls-4" cx="417.47" cy="326.7" r="13.04"/><circle class="cls-4" cx="433.77" cy="365.1" r="13.04"/><circle class="cls-4" cx="450.07" cy="403.5" r="13.04"/><circle class="cls-4" cx="466.37" cy="441.9" r="13.04"/><circle class="cls-4" cx="482.67" cy="480.3" r="13.04"/><circle class="cls-4" cx="498.97" cy="518.7" r="13.04"/><circle class="cls-4" cx="515.27" cy="557.1" r="13.04"/><circle class="cls-4" cx="531.57" cy="595.5" r="13.04"/><circle class="cls-4" cx="547.87" cy="633.9" r="13.04"/><circle class="cls-4" cx="396.36" cy="132.96" r="12.03"/><circle class="cls-4" cx="411.4" cy="168.4" r="12.03"/><circle class="cls-4" cx="426.45" cy="203.83" r="12.03"/><circle class="cls-4" cx="441.49" cy="239.26" r="12.03"/><circle class="cls-4" cx="456.53" cy="274.7" r="12.03"/><circle class="cls-4" cx="471.57" cy="310.13" r="12.03"/><circle class="cls-4" cx="486.61" cy="345.56" r="12.03"/><circle class="cls-4" cx="501.65" cy="381" r="12.03"/><circle class="cls-4" cx="516.69" cy="416.43" r="12.03"/><circle class="cls-4" cx="531.73" cy="451.86" r="12.03"/><circle class="cls-4" cx="546.77" cy="487.3" r="12.03"/><circle class="cls-4" cx="561.81" cy="522.73" r="12.03"/><circle class="cls-4" cx="576.85" cy="558.16" r="12.03"/><circle class="cls-4" cx="591.89" cy="593.6" r="12.03"/><circle class="cls-4" cx="463.09" cy="128.97" r="11.16"/><circle class="cls-4" cx="477.05" cy="161.84" r="11.16"/><circle class="cls-4" cx="491" cy="194.71" r="11.16"/><circle class="cls-4" cx="504.96" cy="227.59" r="11.16"/><circle class="cls-4" cx="518.91" cy="260.46" r="11.16"/><circle class="cls-4" cx="532.86" cy="293.34" r="11.16"/><circle class="cls-4" cx="546.82" cy="326.21" r="11.16"/><circle class="cls-4" cx="560.77" cy="359.09" r="11.16"/><circle class="cls-4" cx="574.73" cy="391.96" r="11.16"/><circle class="cls-4" cx="588.68" cy="424.83" r="11.16"/><circle class="cls-4" cx="602.64" cy="457.71" r="11.16"/><circle class="cls-4" cx="616.59" cy="490.58" r="11.16"/><circle class="cls-4" cx="630.54" cy="523.46" r="11.16"/><circle class="cls-4" cx="644.5" cy="556.33" r="11.16"/><circle class="cls-4" cx="529.19" cy="119.24" r="10.35"/><circle class="cls-4" cx="542.12" cy="149.71" r="10.35"/><circle class="cls-4" cx="555.06" cy="180.19" r="10.35"/><circle class="cls-4" cx="568" cy="210.66" r="10.35"/><circle class="cls-4" cx="580.93" cy="241.13" r="10.35"/><circle class="cls-4" cx="593.87" cy="271.61" r="10.35"/><circle class="cls-4" cx="606.8" cy="302.08" r="10.35"/><circle class="cls-4" cx="619.74" cy="332.56" r="10.35"/><circle class="cls-4" cx="632.67" cy="363.03" r="10.35"/><circle class="cls-4" cx="645.61" cy="393.51" r="10.35"/><circle class="cls-4" cx="658.54" cy="423.98" r="10.35"/><circle class="cls-4" cx="671.48" cy="454.45" r="10.35"/><circle class="cls-4" cx="684.42" cy="484.93" r="10.35"/><circle class="cls-4" cx="697.35" cy="515.4" r="10.35"/><circle class="cls-4" cx="597.32" cy="116.32" r="9.32"/><circle class="cls-4" cx="608.97" cy="143.77" r="9.32"/><circle class="cls-4" cx="620.63" cy="171.23" r="9.32"/><circle class="cls-4" cx="632.28" cy="198.69" r="9.32"/><circle class="cls-4" cx="643.94" cy="226.14" r="9.32"/><circle class="cls-4" cx="655.59" cy="253.6" r="9.32"/><circle class="cls-4" cx="667.24" cy="281.06" r="9.32"/><circle class="cls-4" cx="678.9" cy="308.51" r="9.32"/><circle class="cls-4" cx="690.55" cy="335.97" r="9.32"/><circle class="cls-4" cx="702.21" cy="363.42" r="9.32"/><circle class="cls-4" cx="713.86" cy="390.88" r="9.32"/><circle class="cls-4" cx="725.52" cy="418.34" r="9.32"/><circle class="cls-4" cx="208.99" cy="137.55" r="18.42"/><circle class="cls-4" cx="232.02" cy="191.81" r="18.42"/><circle class="cls-4" cx="255.05" cy="246.06" r="18.42"/><circle class="cls-4" cx="278.08" cy="300.31" r="18.42"/><circle class="cls-4" cx="301.11" cy="354.56" r="18.42"/><circle class="cls-4" cx="324.13" cy="408.82" r="18.42"/><circle class="cls-4" cx="347.16" cy="463.07" r="18.42"/><circle class="cls-4" cx="370.19" cy="517.32" r="18.42"/><circle class="cls-4" cx="393.22" cy="571.58" r="18.42"/><circle class="cls-4" cx="416.25" cy="625.83" r="18.42"/><circle class="cls-4" cx="439.28" cy="680.08" r="18.42"/><circle class="cls-4" cx="462.31" cy="734.33" r="18.42"/></g><text class="cls-5" transform="translate(91.69 492.13)">John Doe</text><text class="cls-6" transform="translate(110.93 394.68)"><tspan class="cls-7">***</tspan><tspan class="cls-8" x="71.08" y="0">* </tspan><tspan class="cls-7" x="108.68" y="0">***</tspan><tspan x="179.76" y="0">* </tspan><tspan class="cls-7" x="217.36" y="0">***</tspan><tspan x="288.44" y="0">* 1234</tspan></text><text class="cls-9" transform="translate(444.29 217.24)"><tspan class="cls-10">R</tspan><tspan x="19" y="0">a</tspan><tspan class="cls-11" x="34.5" y="0">n</tspan><tspan x="52.41" y="0">dom Bank</tspan></text><polygon points="520.75 453.46 512.6 501.3 525.63 501.3 533.79 453.46 520.75 453.46"/><path d="M501.67,453.52,488.9,486.14l-1.36-4.92c-2.52-5.94-9.67-14.46-18.06-19.83l11.67,39.89,13.8,0,20.53-47.74Z"/><path d="M482.59,456.94c-.76-2.91-3-3.78-5.68-3.88H456.69l-.16.95c15.73,3.81,26.13,13,30.45,24.06Z"/><path d="M560.22,462.64a23.92,23.92,0,0,1,9.75,1.83l1.18.55,1.76-10.37a33.56,33.56,0,0,0-11.67-2c-12.89,0-22,6.49-22,15.79-.08,6.87,6.47,10.71,11.42,13s6.78,3.84,6.76,5.93c0,3.2-4,4.67-7.8,4.67a27.39,27.39,0,0,1-12.27-2.5l-1.68-.77-1.84,10.71c3.05,1.34,8.68,2.49,14.53,2.55,13.7,0,22.61-6.41,22.7-16.35.06-5.43-3.42-9.58-10.95-13-4.56-2.22-7.35-3.7-7.32-5.94C552.75,464.76,555.11,462.64,560.22,462.64Z"/><path d="M606.37,453.52H596.3c-3.13,0-5.46.85-6.83,4l-19.36,43.84H583.8s2.24-5.9,2.74-7.19l16.7,0c.39,1.67,1.59,7.17,1.59,7.17h12.09Zm-16.08,30.83c1.08-2.75,5.2-13.37,5.2-13.37s1.06-2.76,1.73-4.57l.88,4.13s2.5,11.42,3,13.81Z"/><text class="cls-12" transform="translate(315.21 492.49)">0<tspan class="cls-13" x="23.39" y="0">1/30</tspan></text><g class="cls-14"><polygon class="cls-15" points="964.99 382.65 914.5 73.77 707.24 205.11 964.99 382.65"/></g><g class="cls-16"><path class="cls-17" d="M-202.83-342.26c-11.43,17.6-30.85,41-12.5,59.31,12.61,12.59,31.81,22.23,46.8,32,22.42,14.55,70.15,31.76,78.05,59.27s-4.3,44.59,24.57,62.63c27.6,17.27,56.45,32.66,84.27,49.61C56.42-56.3,93.24-44.92,136.74-34.79c23.16,5.39,46.91,10.33,69.14,19s38.65,21.27,62.9,26.62c28.57,6.31,57.78,9.31,86.58,14.3,24.05,4.17,51,7.7,69.35,25.08,25.72,24.39,47.74,54.46,69.66,82.22"/><path class="cls-17" d="M-16.35-472.26c-1.09,35.2-60.93,88.2-24.68,114.92,28.66,21.12,61.9,37.35,91.58,57.17,11,7.38,24.68,14.39,28.49,28.13,3.41,12.28-2.12,25.53-4,37.6-4.57,30.21,18.44,43.65,37.65,63.23,18.26,18.6,34,40.56,53,58.29C197.7-83,250-78.45,288.06-58.68c18.4,9.56,30.59,25.36,50.43,32.56,27,9.81,56.45,13.31,84.47,19.21,26,5.47,52.26,10.37,70.82,30.58C506.49,37.51,518.3,52.24,531,66.14"/></g></svg>