<?xml version="1.0" standalone="no"?>
<!DOCTYPE svg PUBLIC "-//W3C//DTD SVG 20010904//EN"
 "http://www.w3.org/TR/2001/REC-SVG-20010904/DTD/svg10.dtd">
<svg version="1.0" xmlns="http://www.w3.org/2000/svg"
 width="512.000000pt" height="512.000000pt" viewBox="0 0 512.000000 512.000000"
 preserveAspectRatio="xMidYMid meet">

<g transform="translate(0.000000,512.000000) scale(0.100000,-0.100000)"
fill="#000" stroke="none">
<path d="M3933 4276 c-37 -31 -48 -71 -33 -112 6 -16 111 -129 233 -251 l221
-223 -1717 0 c-1446 0 -1723 -2 -1751 -14 -70 -29 -87 -102 -37 -158 l29 -33
1736 -5 1737 -5 -72 -70 c-39 -38 -142 -145 -230 -237 -181 -190 -187 -202
-125 -264 27 -27 42 -34 72 -34 37 0 50 12 378 339 l339 339 -6 43 c-5 40 -23
60 -335 371 -302 303 -332 330 -368 335 -33 4 -45 1 -71 -21z"/>
<path d="M746 1911 l-339 -339 6 -43 c5 -41 23 -60 339 -376 316 -315 336
-333 370 -333 71 0 128 82 98 141 -7 13 -112 124 -233 247 l-222 222 1718 0
c1446 0 1723 2 1751 14 70 29 87 102 37 158 l-29 33 -1737 3 -1736 2 223 230
c122 127 226 240 231 252 21 58 -34 128 -101 128 -35 0 -54 -17 -376 -339z"/>
</g>
</svg>
